<svg width="192" height="19" viewBox="0 0 192 19" fill="none" xmlns="http://www.w3.org/2000/svg">
<path d="M4.20628 1.248V11.616C4.20628 12.752 4.50228 13.624 5.09428 14.232C5.68628 14.824 6.51828 15.12 7.59028 15.12C8.67828 15.12 9.51828 14.824 10.1103 14.232C10.7023 13.624 10.9983 12.752 10.9983 11.616V1.248H14.3823V11.592C14.3823 13.016 14.0703 14.224 13.4463 15.216C12.8383 16.192 12.0143 16.928 10.9743 17.424C9.95028 17.92 8.80628 18.168 7.54228 18.168C6.29428 18.168 5.15828 17.92 4.13428 17.424C3.12628 16.928 2.32628 16.192 1.73428 15.216C1.14228 14.224 0.846281 13.016 0.846281 11.592V1.248H4.20628ZM31.9567 18H28.5967L20.9887 6.504V18H17.6287V1.224H20.9887L28.5967 12.744V1.224H31.9567V18ZM57.6691 1.248L52.9891 18H49.0291L45.8851 6.072L42.5971 18L38.6611 18.024L34.1491 1.248H37.7491L40.7011 14.256L44.1091 1.248H47.8531L51.0691 14.184L54.0451 1.248H57.6691ZM63.223 1.248V18H59.863V1.248H63.223ZM80.8707 18H77.5107L69.9027 6.504V18H66.5427V1.224H69.9027L77.5107 12.744V1.224H80.8707V18ZM90.0472 1.248C91.8072 1.248 93.3512 1.592 94.6792 2.28C96.0232 2.968 97.0552 3.952 97.7752 5.232C98.5112 6.496 98.8792 7.968 98.8792 9.648C98.8792 11.328 98.5112 12.8 97.7752 14.064C97.0552 15.312 96.0232 16.28 94.6792 16.968C93.3512 17.656 91.8072 18 90.0472 18H84.1912V1.248H90.0472ZM89.9272 15.144C91.6872 15.144 93.0472 14.664 94.0072 13.704C94.9672 12.744 95.4472 11.392 95.4472 9.648C95.4472 7.904 94.9672 6.544 94.0072 5.568C93.0472 4.576 91.6872 4.08 89.9272 4.08H87.5512V15.144H89.9272Z" fill="#166527"/>
<path d="M100.506 9.504C100.506 7.84 100.85 6.36 101.538 5.064C102.242 3.752 103.234 2.736 104.514 2.016C105.794 1.28 107.266 0.912 108.93 0.912C111.042 0.912 112.818 1.48 114.258 2.616C115.698 3.736 116.626 5.264 117.042 7.2H111.978C111.674 6.56 111.25 6.072 110.706 5.736C110.178 5.4 109.562 5.232 108.858 5.232C107.77 5.232 106.898 5.624 106.242 6.408C105.602 7.176 105.282 8.208 105.282 9.504C105.282 10.816 105.602 11.864 106.242 12.648C106.898 13.416 107.77 13.8 108.858 13.8C109.562 13.8 110.178 13.632 110.706 13.296C111.25 12.96 111.674 12.472 111.978 11.832H117.042C116.626 13.768 115.698 15.304 114.258 16.44C112.818 17.56 111.042 18.12 108.93 18.12C107.266 18.12 105.794 17.76 104.514 17.04C103.234 16.304 102.242 15.288 101.538 13.992C100.85 12.68 100.506 11.184 100.506 9.504ZM129.974 15.24H123.974L123.062 18H118.118L124.286 1.08H129.71L135.854 18H130.886L129.974 15.24ZM128.798 11.64L126.974 6.168L125.174 11.64H128.798ZM148.187 9.312C149.179 9.536 149.963 10.032 150.539 10.8C151.131 11.552 151.427 12.416 151.427 13.392C151.427 14.832 150.931 15.96 149.939 16.776C148.947 17.592 147.555 18 145.763 18H137.387V1.08H145.499C147.227 1.08 148.579 1.464 149.555 2.232C150.547 3 151.043 4.08 151.043 5.472C151.043 6.464 150.779 7.296 150.251 7.968C149.739 8.624 149.051 9.072 148.187 9.312ZM142.091 7.8H144.467C145.651 7.8 146.243 7.312 146.243 6.336C146.243 5.328 145.651 4.824 144.467 4.824H142.091V7.8ZM144.827 14.208C146.011 14.208 146.603 13.712 146.603 12.72C146.603 12.208 146.443 11.816 146.123 11.544C145.819 11.272 145.379 11.136 144.803 11.136H142.091V14.208H144.827ZM158.193 1.08V18H153.489V1.08H158.193ZM176.543 18H171.839L165.575 8.544V18H160.871V1.08H165.575L171.839 10.656V1.08H176.543V18ZM185.607 18.168C183.639 18.168 182.023 17.704 180.759 16.776C179.495 15.832 178.815 14.488 178.719 12.744H183.735C183.783 13.336 183.959 13.768 184.263 14.04C184.567 14.312 184.959 14.448 185.439 14.448C185.871 14.448 186.223 14.344 186.495 14.136C186.783 13.912 186.927 13.608 186.927 13.224C186.927 12.728 186.695 12.344 186.231 12.072C185.767 11.8 185.015 11.496 183.975 11.16C182.871 10.792 181.975 10.44 181.287 10.104C180.615 9.752 180.023 9.248 179.511 8.592C179.015 7.92 178.767 7.048 178.767 5.976C178.767 4.888 179.039 3.96 179.583 3.192C180.127 2.408 180.879 1.816 181.839 1.416C182.799 1.016 183.887 0.816 185.103 0.816C187.071 0.816 188.639 1.28 189.807 2.208C190.991 3.12 191.623 4.408 191.703 6.072H186.591C186.575 5.56 186.415 5.176 186.111 4.92C185.823 4.664 185.447 4.536 184.983 4.536C184.631 4.536 184.343 4.64 184.119 4.848C183.895 5.056 183.783 5.352 183.783 5.736C183.783 6.056 183.903 6.336 184.143 6.576C184.399 6.8 184.711 7 185.079 7.176C185.447 7.336 185.991 7.544 186.711 7.8C187.783 8.168 188.663 8.536 189.351 8.904C190.055 9.256 190.655 9.76 191.151 10.416C191.663 11.056 191.919 11.872 191.919 12.864C191.919 13.872 191.663 14.776 191.151 15.576C190.655 16.376 189.927 17.008 188.967 17.472C188.023 17.936 186.903 18.168 185.607 18.168Z" fill="#1A3724"/>
</svg>
